<svg width="16" height="16" viewBox="0 0 16 16" fill="none" xmlns="http://www.w3.org/2000/svg">
<mask id="mask0_454_5805" style="mask-type:luminance" maskUnits="userSpaceOnUse" x="1" y="1" width="14" height="14">
<path fill-rule="evenodd" clip-rule="evenodd" d="M1.33362 1.33347H15V14.9998H1.33362V1.33347Z" fill="white"/>
</mask>
<g mask="url(#mask0_454_5805)">
<path fill-rule="evenodd" clip-rule="evenodd" d="M2.90634 3.37378C2.90767 3.37378 2.87434 3.40845 2.83234 3.44978C2.671 3.60645 2.337 3.93245 2.33367 4.61445C2.32834 5.56845 2.95567 7.33978 5.97634 10.3598C8.983 13.3651 10.7517 13.9998 11.7077 13.9998H11.7217C12.4037 13.9964 12.729 13.6618 12.8863 13.5011C12.9343 13.4518 12.973 13.4158 13.0003 13.3931C13.6643 12.7251 14.0043 12.2278 14.001 11.9091C13.9963 11.5838 13.5917 11.1991 13.0323 10.6671C12.8543 10.4978 12.661 10.3138 12.457 10.1098C11.9283 9.58245 11.6663 9.67245 11.0903 9.87512C10.2937 10.1544 9.20034 10.5344 7.50167 8.83512C5.80034 7.13512 6.181 6.04311 6.45967 5.24645C6.661 4.67045 6.753 4.40778 6.22367 3.87845C6.01634 3.67178 5.83034 3.47578 5.659 3.29578C5.13034 2.73978 4.749 2.33778 4.42567 2.33311H4.42034C4.101 2.33311 3.605 2.67445 2.903 3.37645C2.905 3.37445 2.90567 3.37378 2.90634 3.37378ZM11.7083 14.9998C10.047 14.9998 7.88101 13.6771 5.26967 11.0671C2.64834 8.44647 1.32367 6.27381 1.33367 4.60914C1.33967 3.50914 1.91634 2.94581 2.13301 2.73447C2.14434 2.72047 2.18301 2.68247 2.19634 2.66914C3.15234 1.71247 3.79701 1.32581 4.43834 1.33314C5.18301 1.34314 5.71301 1.90047 6.38367 2.60647C6.54967 2.78114 6.72967 2.97114 6.93034 3.17114C7.90367 4.14447 7.62634 4.93847 7.40367 5.57581C7.16101 6.27114 6.95101 6.87114 8.20834 8.12847C9.46701 9.38581 10.067 9.17581 10.7597 8.93114C11.3977 8.70847 12.1897 8.42981 13.1643 9.40314C13.3617 9.60047 13.549 9.77847 13.7217 9.94314C14.431 10.6171 14.991 11.1498 15.0003 11.8965C15.0083 12.5331 14.6217 13.1818 13.667 14.1371L13.2443 13.8505L13.6017 14.1998C13.3903 14.4165 12.8277 14.9938 11.727 14.9998H11.7083Z" fill="#979797"/>
</g>
</svg>
