<svg width="47" height="30" viewBox="0 0 47 30" fill="none" xmlns="http://www.w3.org/2000/svg">
<path d="M30.4946 3.88385H16.511V26.6201H30.4946V3.88385Z" fill="#FF5F00"/>
<path d="M17.9515 15.2541C17.9497 13.0647 18.4483 10.9037 19.4094 8.93456C20.3705 6.96538 21.7689 5.23963 23.4989 3.88792C21.3563 2.2116 18.783 1.1692 16.0734 0.879846C13.3637 0.590496 10.627 1.06587 8.17589 2.25164C5.7248 3.43741 3.65827 5.28574 2.21249 7.58537C0.766705 9.88501 0 12.5432 0 15.2561C0 17.9689 0.766705 20.6271 2.21249 22.9267C3.65827 25.2264 5.7248 27.0747 8.17589 28.2605C10.627 29.4462 13.3637 29.9216 16.0734 29.6323C18.783 29.3429 21.3563 28.3005 23.4989 26.6242C21.7684 25.2721 20.3696 23.5457 19.4085 21.5758C18.4474 19.6058 17.9491 17.444 17.9515 15.2541Z" fill="#EB001B"/>
<path d="M45.6119 24.2144V23.7486H45.8136V23.6522H45.3335V23.7486H45.5231V24.2144H45.6119ZM46.5438 24.2144V23.6522H46.3986L46.2292 24.0538L46.0597 23.6522H45.9145V24.2144H46.0194V23.7887L46.1767 24.1542H46.2856L46.443 23.7887V24.2144H46.5438Z" fill="#F79E1B"/>
<path d="M47.0001 15.254C47 17.9671 46.2331 20.6255 44.7871 22.9252C43.3411 25.2249 41.2742 27.0732 38.8228 28.2588C36.3714 29.4444 33.6344 29.9194 30.9246 29.6297C28.2148 29.3399 25.6416 28.297 23.499 26.6202C25.2283 25.2673 26.6264 23.541 27.5878 21.5717C28.5491 19.6025 29.0486 17.4415 29.0486 15.252C29.0486 13.0625 28.5491 10.9016 27.5878 8.93231C26.6264 6.96302 25.2283 5.2368 23.499 3.88388C25.6416 2.20704 28.2148 1.16413 30.9246 0.874365C33.6344 0.584599 36.3714 1.05967 38.8228 2.24527C41.2742 3.43087 43.3411 5.27917 44.7871 7.57888C46.2331 9.87859 47 12.5369 47.0001 15.25V15.254Z" fill="#F79E1B"/>
</svg>
