<svg width="18" height="18" viewBox="0 0 18 18" fill="none" xmlns="http://www.w3.org/2000/svg">
<path d="M9.00035 3.88891C10.5652 3.88891 11.6207 4.56484 12.2226 5.12965L14.5744 2.83335C13.13 1.49076 11.2504 0.666687 9.00035 0.666687C5.74109 0.666687 2.92628 2.53706 1.55591 5.25928L4.25035 7.35187C4.92628 5.34261 6.79665 3.88891 9.00035 3.88891Z" fill="#EA4335"/>
<path d="M17 9.18521C17 8.50002 16.9444 8.00002 16.8241 7.48151H9V10.5741H13.5926C13.5 11.3426 13 12.5 11.8889 13.2778L14.5185 15.3148C16.0926 13.8611 17 11.7222 17 9.18521Z" fill="#4285F4"/>
<path d="M4.25934 10.648C4.08342 10.1295 3.98156 9.57397 3.98156 8.9999C3.98156 8.42582 4.08342 7.87027 4.25008 7.35175L1.55564 5.25916C0.990822 6.38879 0.666748 7.6573 0.666748 8.9999C0.666748 10.3425 0.990822 11.611 1.55564 12.7406L4.25934 10.648Z" fill="#FBBC05"/>
<path d="M9.00013 17.3333C11.2501 17.3333 13.139 16.5925 14.5186 15.3147L11.889 13.2777C11.1853 13.7684 10.2409 14.111 9.00013 14.111C6.79642 14.111 4.92605 12.6573 4.25939 10.6481L1.56494 12.7407C2.93531 15.4629 5.74087 17.3333 9.00013 17.3333Z" fill="#34A853"/>
</svg>
