<svg width="16" height="16" viewBox="0 0 16 16" fill="none" xmlns="http://www.w3.org/2000/svg">
<path d="M6.10477 13.8476V11.8031C6.10476 11.2831 6.5287 10.8606 7.05397 10.8571H8.97802C9.50579 10.8571 9.93363 11.2806 9.93363 11.8031V11.8031V13.854C9.93351 14.2955 10.2895 14.6563 10.7353 14.6667H12.018C13.2967 14.6667 14.3333 13.6405 14.3333 12.3746V12.3746V6.55857C14.3265 6.06056 14.0903 5.59291 13.6919 5.2887L9.30511 1.79021C8.53658 1.18105 7.4441 1.18105 6.67557 1.79021L2.30798 5.29505C1.90813 5.59803 1.67155 6.06645 1.66663 6.56492V12.3746C1.66663 13.6405 2.70321 14.6667 3.9819 14.6667H5.2646C5.72153 14.6667 6.09194 14.3 6.09194 13.8476V13.8476" stroke="#979797" stroke-linecap="round" stroke-linejoin="round"/>
</svg>
