<svg width="16" height="16" viewBox="0 0 16 16" fill="none" xmlns="http://www.w3.org/2000/svg">
<mask id="mask0_443_5918" style="mask-type:luminance" maskUnits="userSpaceOnUse" x="2" y="9" width="12" height="6">
<path fill-rule="evenodd" clip-rule="evenodd" d="M2.66663 9.66406H13.2266V14.5801H2.66663V9.66406Z" fill="white"/>
</mask>
<g mask="url(#mask0_443_5918)">
<path fill-rule="evenodd" clip-rule="evenodd" d="M7.94717 10.6641C5.1065 10.6641 3.6665 11.1521 3.6665 12.1154C3.6665 13.0874 5.1065 13.5801 7.94717 13.5801C10.7872 13.5801 12.2265 13.0921 12.2265 12.1287C12.2265 11.1567 10.7872 10.6641 7.94717 10.6641ZM7.94717 14.5801C6.64117 14.5801 2.6665 14.5801 2.6665 12.1154C2.6665 9.91806 5.6805 9.66406 7.94717 9.66406C9.25317 9.66406 13.2265 9.66406 13.2265 12.1287C13.2265 14.3261 10.2132 14.5801 7.94717 14.5801Z" fill="#979797"/>
</g>
<mask id="mask1_443_5918" style="mask-type:luminance" maskUnits="userSpaceOnUse" x="4" y="1" width="8" height="8">
<path fill-rule="evenodd" clip-rule="evenodd" d="M4.40649 1.3334H11.4865V8.41247H4.40649V1.3334Z" fill="white"/>
</mask>
<g mask="url(#mask1_443_5918)">
<path fill-rule="evenodd" clip-rule="evenodd" d="M7.94717 2.28516C6.51984 2.28516 5.3585 3.44583 5.3585 4.87316C5.35384 6.29583 6.5065 7.45583 7.92784 7.46116L7.94717 7.93716V7.46116C9.37384 7.46116 10.5345 6.29983 10.5345 4.87316C10.5345 3.44583 9.37384 2.28516 7.94717 2.28516ZM7.94718 8.41246H7.92585C5.97785 8.40646 4.39985 6.8178 4.40652 4.87113C4.40652 2.92113 5.99451 1.33313 7.94718 1.33313C9.89918 1.33313 11.4865 2.92113 11.4865 4.87313C11.4865 6.82513 9.89918 8.41246 7.94718 8.41246Z" fill="#979797"/>
</g>
</svg>
