<svg width="266" height="245" viewBox="0 0 266 245" fill="none" xmlns="http://www.w3.org/2000/svg">
<circle cx="121.5" cy="130.5" r="106.5" fill="#FFA24C" fill-opacity="0.3"/>
<rect y="67" width="228" height="135" rx="20" fill="#FE7825"/>
<rect y="67" width="228" height="135" rx="20" fill="url(#paint0_linear_514_7449)" fill-opacity="0.5"/>
<rect y="97" width="228" height="34" fill="#FFB35D"/>
<rect x="16.7791" y="145" width="42.4416" height="16" fill="#FFB35D"/>
<rect x="67.1172" y="145" width="41.4545" height="16" fill="#FFB35D"/>
<rect x="116.468" y="145" width="42.4416" height="16" fill="#FFB35D"/>
<rect x="166.805" y="145" width="42.4416" height="16" fill="#FFB35D"/>
<circle cx="216" cy="195" r="50" fill="#FE7825"/>
<circle cx="216" cy="195" r="50" fill="url(#paint1_linear_514_7449)"/>
<path d="M197 194.584L214.606 208L240 181" stroke="#FFC085" stroke-width="8"/>
<circle cx="251.5" cy="83.5" r="3.5" fill="#FF9243"/>
<circle cx="117.5" cy="42.5" r="5.5" fill="#FF9243"/>
<circle cx="28.5" cy="45.5" r="2.5" fill="#FF9243"/>
<circle cx="130.5" cy="2.5" r="2.5" fill="#FF9243"/>
<circle cx="174.5" cy="50.5" r="2.5" fill="#FF9243"/>
<rect x="62.6001" y="35.0659" width="12" height="4" rx="2" transform="rotate(23.5795 62.6001 35.0659)" fill="#FF9243"/>
<rect x="71.5322" y="34.6001" width="12" height="4" rx="2" transform="rotate(113.58 71.5322 34.6001)" fill="#FF9243"/>
<rect x="182.093" y="25.0131" width="4.7626" height="1.58753" rx="0.793767" transform="rotate(-34.9611 182.093 25.0131)" fill="#FF9243"/>
<rect x="183.786" y="21.8926" width="4.7626" height="1.58753" rx="0.793767" transform="rotate(55.0389 183.786 21.8926)" fill="#FF9243"/>
<defs>
<linearGradient id="paint0_linear_514_7449" x1="529.039" y1="152.957" x2="-55.5294" y2="-44.0484" gradientUnits="userSpaceOnUse">
<stop offset="0.34375" stop-color="#DD4200"/>
<stop offset="0.609375" stop-color="#FF4F00"/>
<stop offset="0.848958" stop-color="#FF8A00"/>
</linearGradient>
<linearGradient id="paint1_linear_514_7449" x1="505.231" y1="214.231" x2="125.231" y2="145" gradientUnits="userSpaceOnUse">
<stop offset="0.369792" stop-color="#E64500" stop-opacity="0.81"/>
<stop offset="0.572917" stop-color="#FF5C00" stop-opacity="0.79"/>
<stop offset="0.927083" stop-color="#FF9921"/>
</linearGradient>
</defs>
</svg>
