<svg width="12" height="15" viewBox="0 0 12 15" fill="none" xmlns="http://www.w3.org/2000/svg">
<path fill-rule="evenodd" clip-rule="evenodd" d="M3.48072 14.245L3.71927 12.6789L3.18788 12.6661H0.650391L2.41385 1.10917C2.41935 1.07417 2.43711 1.04169 2.46304 1.01858C2.48911 0.995466 2.52233 0.982788 2.55708 0.982788H6.83567C8.2562 0.982788 9.23645 1.28824 9.74816 1.89123C9.98811 2.1741 10.1409 2.46978 10.2149 2.79504C10.2925 3.13642 10.2937 3.54421 10.2181 4.04168L10.2126 4.07787V4.39666L10.4525 4.53717C10.6545 4.64797 10.8152 4.77475 10.9383 4.91988C11.1435 5.16181 11.2763 5.46925 11.3324 5.8336C11.3904 6.20838 11.3712 6.65448 11.2763 7.15948C11.1668 7.74027 10.9898 8.24619 10.7508 8.66007C10.531 9.04146 10.2509 9.35787 9.91835 9.60297C9.60084 9.83593 9.22367 10.0128 8.79718 10.1259C8.38384 10.2371 7.91263 10.2932 7.39581 10.2932H7.06284C6.82481 10.2932 6.59355 10.3819 6.41199 10.5407C6.22992 10.7029 6.10956 10.9245 6.07264 11.1668L6.04747 11.3079L5.62596 14.0683L5.60692 14.1696C5.60181 14.2017 5.59312 14.2177 5.58034 14.2285C5.56897 14.2384 5.55262 14.245 5.53665 14.245H3.48072Z" fill="#28356A"/>
<path fill-rule="evenodd" clip-rule="evenodd" d="M10.6801 4.11462C10.6675 4.19901 10.6528 4.28524 10.6364 4.37386C10.0722 7.36817 8.14175 8.40259 5.67633 8.40259H4.421C4.11946 8.40259 3.86533 8.62881 3.81844 8.93625L2.99369 14.3434C2.96316 14.5453 3.11367 14.7272 3.31069 14.7272H5.53719C5.80077 14.7272 6.02475 14.5292 6.06628 14.2605L6.08812 14.1436L6.50733 11.394L6.53429 11.2432C6.57531 10.9735 6.7998 10.7754 7.06338 10.7754H7.39635C9.55347 10.7754 11.2422 9.8703 11.7358 7.25077C11.9418 6.15653 11.8352 5.24281 11.2896 4.60021C11.1245 4.40648 10.9197 4.24563 10.6801 4.11462Z" fill="#298FC2"/>
<path fill-rule="evenodd" clip-rule="evenodd" d="M10.0894 3.87142C10.0032 3.84541 9.91423 3.8219 9.823 3.80064C9.73126 3.77991 9.63735 3.76155 9.54063 3.74544C9.20217 3.68892 8.83126 3.66211 8.43403 3.66211H5.08048C4.99781 3.66211 4.91936 3.68139 4.84922 3.71625C4.69449 3.79311 4.57963 3.94445 4.55177 4.12973L3.83831 8.80015L3.81787 8.9363C3.86476 8.62886 4.11889 8.40265 4.42043 8.40265H5.67576C8.14118 8.40265 10.0716 7.3677 10.6359 4.37391C10.6527 4.2853 10.6669 4.19906 10.6796 4.11468C10.5368 4.03637 10.3822 3.96941 10.2158 3.91236C10.1746 3.89823 10.1322 3.88463 10.0894 3.87142Z" fill="#22284F"/>
<path fill-rule="evenodd" clip-rule="evenodd" d="M4.55211 4.12979C4.57997 3.94451 4.69483 3.79317 4.84956 3.71684C4.92022 3.68184 4.99815 3.66256 5.08082 3.66256H8.43437C8.8316 3.66256 9.20251 3.6895 9.54097 3.74602C9.63769 3.762 9.7316 3.78049 9.82334 3.80122C9.91457 3.82235 10.0035 3.84599 10.0897 3.87187C10.1325 3.88508 10.175 3.89881 10.2165 3.91242C10.383 3.96947 10.5377 4.03695 10.6804 4.11473C10.8483 3.00821 10.679 2.25481 10.1002 1.57259C9.46201 0.821433 8.3103 0.5 6.83649 0.5H2.55777C2.25675 0.5 1.99993 0.726218 1.95343 1.03418L0.171309 12.71C0.136173 12.9409 0.308532 13.1493 0.533916 13.1493H3.17541L4.55211 4.12979Z" fill="#28356A"/>
</svg>
