<svg width="14" height="4" viewBox="0 0 14 4" fill="none" xmlns="http://www.w3.org/2000/svg">
<path d="M12.0002 3.66671C11.0797 3.66671 10.3335 2.92052 10.3335 2.00004C10.3335 1.07957 11.0797 0.333374 12.0002 0.333374C12.9206 0.333374 13.6668 1.07957 13.6668 2.00004C13.6668 2.44207 13.4912 2.86599 13.1787 3.17855C12.8661 3.49111 12.4422 3.66671 12.0002 3.66671ZM7.00016 3.66671C6.07969 3.66671 5.3335 2.92052 5.3335 2.00004C5.3335 1.07957 6.07969 0.333374 7.00016 0.333374C7.92064 0.333374 8.66683 1.07957 8.66683 2.00004C8.66683 2.44207 8.49123 2.86599 8.17867 3.17855C7.86611 3.49111 7.44219 3.66671 7.00016 3.66671ZM2.00016 3.66671C1.07969 3.66671 0.333496 2.92052 0.333496 2.00004C0.333496 1.07957 1.07969 0.333374 2.00016 0.333374C2.92064 0.333374 3.66683 1.07957 3.66683 2.00004C3.66683 2.44207 3.49123 2.86599 3.17867 3.17855C2.86611 3.49111 2.44219 3.66671 2.00016 3.66671Z" fill="#313131"/>
</svg>
