<svg width="20" height="20" viewBox="0 0 20 20" fill="none" xmlns="http://www.w3.org/2000/svg">
<path d="M8.13644 6.84033C7.31669 7.53687 7.01629 8.80719 7.72411 9.8263C8.38649 10.7799 9.2209 11.6142 10.1743 12.2762C11.1935 12.9839 12.4638 12.6835 13.1602 11.8637L13.168 11.8673C14.0575 12.2794 15.0025 12.5618 15.9723 12.7058L15.3206 15.3739H15.3176C9.22588 15.3826 4.61961 10.7227 4.62613 4.68224V4.67949L7.29404 4.02778C7.43801 4.99752 7.72048 5.94249 8.13262 6.83207L8.13644 6.84033ZM15.3197 16.9017H16.0845C16.5063 16.9017 16.8483 16.5597 16.8483 16.1378L17.5001 12.0468C17.5001 11.6683 17.2228 11.3468 16.8483 11.2913L16.1958 11.1944C15.3706 11.072 14.5671 10.8317 13.8101 10.4809L13.235 10.2146C12.9018 10.0602 12.5058 10.1649 12.2923 10.4638L12.032 10.8282C11.8038 11.1477 11.3682 11.2453 11.0457 11.0213C10.2419 10.4632 9.53738 9.75877 8.97892 8.95478C8.75494 8.63226 8.85252 8.19662 9.17201 7.96845L9.53639 7.70824C9.8353 7.49477 9.93995 7.09877 9.78557 6.76547L9.51882 6.18983C9.16812 5.43287 8.9279 4.62952 8.80539 3.80433L8.70851 3.15172C8.65293 2.77726 8.33147 2.5 7.95291 2.5L3.86224 3.15172C3.44036 3.15172 3.09835 3.49373 3.09835 3.91561V4.68059C3.09092 11.5605 8.37699 16.9116 15.3197 16.9017Z" fill="#313131"/>
</svg>
