<svg width="20" height="20" viewBox="0 0 20 20" fill="none" xmlns="http://www.w3.org/2000/svg">
<g clip-path="url(#clip0_4149_6738)">
<path d="M15 3.33333H5C3.61929 3.33333 2.5 4.45262 2.5 5.83333V14.1667C2.5 15.5474 3.61929 16.6667 5 16.6667H15C16.3807 16.6667 17.5 15.5474 17.5 14.1667V5.83333C17.5 4.45262 16.3807 3.33333 15 3.33333Z" stroke="#313131" stroke-width="1.5" stroke-linecap="round" stroke-linejoin="round"/>
<path d="M7.49992 10C8.42039 10 9.16659 9.25381 9.16659 8.33334C9.16659 7.41286 8.42039 6.66667 7.49992 6.66667C6.57944 6.66667 5.83325 7.41286 5.83325 8.33334C5.83325 9.25381 6.57944 10 7.49992 10Z" stroke="#313131" stroke-width="1.5" stroke-linecap="round" stroke-linejoin="round"/>
<path d="M12.5 6.66667H14.1667" stroke="#313131" stroke-width="1.5" stroke-linecap="round" stroke-linejoin="round"/>
<path d="M12.5 10H14.1667" stroke="#313131" stroke-width="1.5" stroke-linecap="round" stroke-linejoin="round"/>
<path d="M5.83325 13.3333H14.1666" stroke="#313131" stroke-width="1.5" stroke-linecap="round" stroke-linejoin="round"/>
</g>
<defs>
<clipPath id="clip0_4149_6738">
<rect width="20" height="20" fill="white"/>
</clipPath>
</defs>
</svg>
