<svg width="24" height="24" viewBox="0 0 24 24" fill="none" xmlns="http://www.w3.org/2000/svg">
<mask id="mask0_4077_4904" style="mask-type:luminance" maskUnits="userSpaceOnUse" x="2" y="1" width="20" height="21">
<path fill-rule="evenodd" clip-rule="evenodd" d="M22 22H2.71515V1.27899H22V22Z" fill="white"/>
</mask>
<g mask="url(#mask0_4077_4904)">
<path fill-rule="evenodd" clip-rule="evenodd" d="M16.7977 6.55999C16.5687 6.55999 16.3397 6.53099 16.1157 6.47099C15.4397 6.28899 14.8527 5.83699 14.5047 5.22999C14.2787 4.84899 14.1537 4.40399 14.1497 3.94999C14.1497 3.29999 13.6277 2.77899 12.9857 2.77899H11.7327C11.0937 2.77899 10.5717 3.29699 10.5687 3.93599C10.5727 4.64199 10.2967 5.31299 9.79168 5.81799C9.29368 6.31599 8.59768 6.61499 7.90168 6.59499C7.44568 6.58399 7.00668 6.46099 6.61968 6.24099C6.06268 5.92199 5.35168 6.11199 5.02968 6.66199L4.36568 7.76899C4.21768 8.02399 4.17468 8.34399 4.25368 8.63899C4.33168 8.93399 4.52768 9.18999 4.79168 9.34099C5.40968 9.69699 5.85068 10.271 6.03368 10.959C6.21468 11.634 6.11568 12.371 5.76268 12.978C5.53268 13.378 5.19568 13.715 4.79168 13.947C4.24968 14.264 4.05968 14.973 4.37468 15.525C4.38768 15.547 4.39968 15.57 4.40968 15.594L4.99568 16.61C5.31468 17.165 6.02468 17.356 6.58168 17.039C7.18368 16.683 7.89968 16.581 8.58768 16.762C9.27468 16.94 9.85068 17.375 10.2097 17.989C10.4397 18.373 10.5647 18.82 10.5687 19.275C10.5597 19.617 10.6797 19.924 10.8977 20.149C11.1147 20.373 11.4197 20.5 11.7327 20.5H12.9857C13.2957 20.5 13.5857 20.379 13.8047 20.161C14.0227 19.942 14.1417 19.651 14.1397 19.341C14.1607 17.879 15.3557 16.702 16.8027 16.702C17.2667 16.707 17.7137 16.832 18.1017 17.064C18.6467 17.374 19.3587 17.183 19.6777 16.628L20.3547 15.515C20.6647 14.977 20.4747 14.266 19.9227 13.945C19.1037 13.471 18.5927 12.587 18.5927 11.639C18.5927 10.691 19.1037 9.80799 19.9247 9.33299C20.4737 9.01499 20.6637 8.30799 20.3457 7.75799L19.7147 6.66999C19.5587 6.38899 19.3037 6.18599 19.0087 6.10299C18.7147 6.02099 18.3907 6.05599 18.1207 6.20599C17.7237 6.43899 17.2617 6.55999 16.7977 6.55999ZM11.7327 1.27899H12.9857C14.4547 1.27899 15.6497 2.47299 15.6497 3.94199C15.6517 4.12299 15.7037 4.31099 15.8007 4.47399C15.9577 4.74799 16.2117 4.94399 16.5047 5.02199C16.7957 5.09999 17.1147 5.05699 17.3767 4.90499C18.0047 4.55499 18.7437 4.46999 19.4197 4.65999C20.0947 4.85099 20.6777 5.31499 21.0197 5.92999L21.6447 7.00699C22.3757 8.27499 21.9407 9.89999 20.6747 10.632C20.3157 10.839 20.0927 11.225 20.0927 11.639C20.0927 12.053 20.3157 12.44 20.6747 12.647C21.9417 13.383 22.3757 15.012 21.6457 16.28L20.9677 17.393C20.2467 18.647 18.6167 19.089 17.3457 18.359C17.1727 18.256 16.9847 18.204 16.7937 18.202C16.1707 18.202 15.6497 18.716 15.6397 19.348C15.6437 20.045 15.3687 20.714 14.8677 21.219C14.3647 21.723 13.6967 22 12.9857 22H11.7327C11.0167 22 10.3207 21.706 9.82168 21.195C9.32368 20.681 9.04868 19.976 9.06968 19.261C9.06768 19.1 9.01468 18.914 8.91868 18.751C8.75968 18.481 8.50868 18.291 8.21068 18.213C7.91268 18.139 7.60068 18.179 7.33568 18.336C6.05568 19.067 4.42668 18.629 3.69568 17.359L3.07268 16.28C3.05668 16.251 3.04268 16.223 3.03068 16.194C2.36868 14.943 2.81068 13.368 4.04068 12.649C4.21968 12.546 4.36468 12.402 4.46468 12.228C4.61968 11.959 4.66268 11.639 4.58468 11.345C4.50468 11.045 4.31368 10.796 4.04468 10.642C3.43768 10.293 2.98468 9.70499 2.80368 9.02599C2.62268 8.34799 2.72168 7.61199 3.07468 7.00499L3.73868 5.89899C4.46968 4.64299 6.09868 4.20799 7.36568 4.93999C7.53468 5.03699 7.72968 5.08999 7.92368 5.09499H7.92968C8.21868 5.09499 8.51568 4.97199 8.73168 4.75699C8.95068 4.53799 9.07068 4.24599 9.06868 3.93599C9.07568 2.46699 10.2707 1.27899 11.7327 1.27899Z" fill="#313131"/>
</g>
<path fill-rule="evenodd" clip-rule="evenodd" d="M12.3547 13.5259C13.3947 13.5259 14.2407 12.6789 14.2407 11.6389C14.2407 10.5989 13.3947 9.75389 12.3547 9.75389C11.3147 9.75389 10.4687 10.5989 10.4687 11.6389C10.4687 12.6789 11.3147 13.5259 12.3547 13.5259ZM12.3547 8.25389C14.2217 8.25389 15.7407 9.77189 15.7407 11.6389C15.7407 13.5059 14.2217 15.0259 12.3547 15.0259C10.4877 15.0259 8.96872 13.5059 8.96872 11.6389C8.96872 9.77189 10.4877 8.25389 12.3547 8.25389Z" fill="#313131"/>
</svg>
