<svg width="18" height="16" viewBox="0 0 18 16" fill="none" xmlns="http://www.w3.org/2000/svg">
<path fill-rule="evenodd" clip-rule="evenodd" d="M7.0803 13.5924H0.779297C0.365297 13.5924 0.0292969 13.2564 0.0292969 12.8424C0.0292969 12.4284 0.365297 12.0924 0.779297 12.0924H7.0803C7.4943 12.0924 7.8303 12.4284 7.8303 12.8424C7.8303 13.2564 7.4943 13.5924 7.0803 13.5924Z" fill="#FE7825"/>
<path fill-rule="evenodd" clip-rule="evenodd" d="M16.1911 3.90003H9.89111C9.47711 3.90003 9.14111 3.56403 9.14111 3.15003C9.14111 2.73603 9.47711 2.40003 9.89111 2.40003H16.1911C16.6051 2.40003 16.9411 2.73603 16.9411 3.15003C16.9411 3.56403 16.6051 3.90003 16.1911 3.90003Z" fill="#FE7825"/>
<mask id="mask0_4077_5930" style="mask-type:luminance" maskUnits="userSpaceOnUse" x="0" y="0" width="7" height="7">
<path fill-rule="evenodd" clip-rule="evenodd" d="M0 3.05176e-05H6.2258V6.19163H0V3.05176e-05Z" fill="white"/>
</mask>
<g mask="url(#mask0_4077_5930)">
<path fill-rule="evenodd" clip-rule="evenodd" d="M3.113 1.49963C2.224 1.49963 1.5 2.21563 1.5 3.09663C1.5 3.97663 2.224 4.69163 3.113 4.69163C4.003 4.69163 4.726 3.97663 4.726 3.09663C4.726 2.21563 4.003 1.49963 3.113 1.49963ZM3.113 6.19163C1.397 6.19163 0 4.80363 0 3.09663C0 1.38963 1.397 -0.000366211 3.113 -0.000366211C4.83 -0.000366211 6.226 1.38963 6.226 3.09663C6.226 4.80363 4.83 6.19163 3.113 6.19163Z" fill="#FE7825"/>
</g>
<path fill-rule="evenodd" clip-rule="evenodd" d="M14.3879 11.2076C13.4979 11.2076 12.7739 11.9236 12.7739 12.8036C12.7739 13.6846 13.4979 14.3996 14.3879 14.3996C15.2769 14.3996 15.9999 13.6846 15.9999 12.8036C15.9999 11.9236 15.2769 11.2076 14.3879 11.2076ZM14.3879 15.8996C12.6709 15.8996 11.2739 14.5106 11.2739 12.8036C11.2739 11.0966 12.6709 9.70763 14.3879 9.70763C16.1039 9.70763 17.4999 11.0966 17.4999 12.8036C17.4999 14.5106 16.1039 15.8996 14.3879 15.8996Z" fill="#FE7825"/>
</svg>
