<svg width="20" height="20" viewBox="0 0 20 20" fill="none" xmlns="http://www.w3.org/2000/svg">
<path d="M18.3332 10.0001C18.3332 5.39723 14.6027 1.66675 9.99984 1.66675C5.39699 1.66675 1.6665 5.39723 1.6665 10.0001C1.6665 14.1603 4.71338 17.6075 8.69775 18.2325V12.4089H6.58185V10.0001H8.69775V8.16414C8.69775 6.07591 9.94126 4.92196 11.8455 4.92196C12.757 4.92196 13.7108 5.08472 13.7108 5.08472V7.1355H12.6594C11.6242 7.1355 11.3019 7.77841 11.3019 8.43758V10.0001H13.6131L13.2437 12.4089H11.3019V18.2325C15.2863 17.6075 18.3332 14.1603 18.3332 10.0001Z" fill="#1877F2"/>
<path d="M13.2438 12.4089L13.6133 10H11.3021V8.4375C11.3021 7.77833 11.6244 7.13542 12.6595 7.13542H13.711V5.08464C13.711 5.08464 12.7572 4.92188 11.8457 4.92188C9.94144 4.92188 8.69793 6.07583 8.69793 8.16406V10H6.58203V12.4089H8.69793V18.2324C9.12273 18.2992 9.55731 18.3333 10 18.3333C10.4427 18.3333 10.8773 18.2992 11.3021 18.2324V12.4089H13.2438Z" fill="white"/>
</svg>
