<svg width="217" height="235" viewBox="0 0 217 235" fill="none" xmlns="http://www.w3.org/2000/svg">
<circle cx="110.5" cy="106.5" r="106.5" fill="#FFA24C" fill-opacity="0.3"/>
<path d="M139.125 129.382H120.642V235H139.125V129.382Z" fill="#FFA030"/>
<path d="M120.848 129.885H139.213V148.25L120.848 141.494V129.885Z" fill="#F5641D"/>
<path d="M101.03 70.1465C101.138 64.3076 100.081 58.5058 97.921 53.0801C95.7611 47.6543 92.5415 42.7134 88.4504 38.5461C84.3593 34.3787 79.4787 31.0685 74.0937 28.8088C68.7088 26.5491 62.9275 25.3853 57.0876 25.3853C51.2477 25.3853 45.4664 26.5491 40.0815 28.8088C34.6965 31.0685 29.8159 34.3787 25.7248 38.5461C21.6337 42.7134 18.4141 47.6543 16.2542 53.0801C14.0943 58.5058 13.0374 64.3076 13.1452 70.1465V129.885H101.03V70.1465Z" fill="#FE7825"/>
<path d="M101.03 70.1465C101.138 64.3076 100.081 58.5058 97.921 53.0801C95.7611 47.6543 92.5415 42.7134 88.4504 38.5461C84.3593 34.3787 79.4787 31.0685 74.0937 28.8088C68.7088 26.5491 62.9275 25.3853 57.0876 25.3853C51.2477 25.3853 45.4664 26.5491 40.0815 28.8088C34.6965 31.0685 29.8159 34.3787 25.7248 38.5461C21.6337 42.7134 18.4141 47.6543 16.2542 53.0801C14.0943 58.5058 13.0374 64.3076 13.1452 70.1465V129.885H101.03V70.1465Z" fill="url(#paint0_linear_467_6034)" fill-opacity="0.8"/>
<path d="M140.657 61.4087L141.663 110.622C141.686 111.904 141.241 113.136 140.428 114.048C139.614 114.96 138.497 115.477 137.321 115.487L51.4286 116.1C50.2513 116.105 49.1128 115.601 48.2611 114.7C47.4094 113.799 46.9136 112.572 46.8815 111.289L45.8752 62.0754C45.8683 61.4195 45.9843 60.7712 46.2162 60.1701C46.448 59.569 46.7908 59.0278 47.2235 58.5798C48.0217 57.7489 49.0783 57.274 50.19 57.2465L136.084 56.6498C137.262 56.6412 138.403 57.1432 139.255 58.0455C140.108 58.9477 140.603 60.1764 140.631 61.4617L140.657 61.4087Z" fill="#FF9E2D"/>
<path d="M139.153 57.8028L105.137 88.4128C101.99 91.2536 98.0312 92.8245 93.9143 92.8665C89.7974 92.9085 85.7679 91.4191 82.49 88.644L47.2187 58.5298C48.0169 57.6989 49.0735 57.224 50.1852 57.1965L136.079 56.5999C137.199 56.5741 138.294 57.0027 139.153 57.8028Z" fill="#FF823B"/>
<path opacity="0.5" d="M110.758 56.705L92.4971 56.5515L92.0001 115.664L110.261 115.817L110.758 56.705Z" fill="#EB4700"/>
<path d="M4.81652 155.515C-1.05545 179.782 13.8042 199.45 38.131 199.45C62.4577 199.45 86.8294 179.782 92.7013 155.515L98.813 130.245C98.8973 129.904 98.9028 129.549 98.8291 129.206C98.7555 128.863 98.6046 128.541 98.388 128.266C98.1713 127.99 97.8946 127.767 97.5789 127.614C97.2632 127.461 96.9168 127.382 96.5661 127.384H13.4447C12.9247 127.386 12.4205 127.563 12.0131 127.886C11.6057 128.21 11.3186 128.66 11.1978 129.166L4.81652 155.515Z" fill="#E84600"/>
<path d="M1.28137 155.515C-4.59061 179.782 10.2691 199.45 34.5958 199.45C58.9226 199.45 83.2942 179.782 89.1662 155.515L95.3378 130.245C95.422 129.904 95.4275 129.549 95.3539 129.206C95.2802 128.863 95.1293 128.541 94.9127 128.266C94.6961 127.99 94.4194 127.767 94.1037 127.614C93.788 127.461 93.4416 127.382 93.0908 127.384H9.9545C9.43444 127.386 8.9303 127.563 8.52288 127.886C8.11546 128.21 7.82835 128.66 7.70757 129.166L1.28137 155.515Z" fill="#FFA53B"/>
<path d="M204.448 70.1315V129.885H101.09V70.1315C101.086 58.4804 96.4556 47.3077 88.2171 39.0692C79.9785 30.8306 68.8058 26.2005 57.1548 26.1965H160.588C172.239 26.2005 183.412 30.8306 191.651 39.0692C199.889 47.3077 204.519 58.4804 204.523 70.1315H204.448Z" fill="#FE7825"/>
<path d="M204.448 70.1315V129.885H101.09V70.1315C101.086 58.4804 96.4556 47.3077 88.2171 39.0692C79.9785 30.8306 68.8058 26.2005 57.1548 26.1965H160.588C172.239 26.2005 183.412 30.8306 191.651 39.0692C199.889 47.3077 204.519 58.4804 204.523 70.1315H204.448Z" fill="url(#paint1_linear_467_6034)"/>
<path d="M204.448 70.1316V86.1147H101.09V70.1316C101.11 60.3609 97.8498 50.8662 91.8323 43.1685H195.266C201.257 50.876 204.49 60.3698 204.448 70.1316Z" fill="#FFA53B"/>
<path d="M115.425 93.8143V5.43518C115.423 4.64724 115.593 3.86837 115.923 3.15278C116.253 2.43719 116.735 1.80206 117.335 1.29163C117.935 0.781195 118.64 0.407713 119.399 0.19717C120.158 -0.0133727 120.954 -0.0559153 121.732 0.0725082L142.913 3.57771C143.672 3.70238 144.362 4.09357 144.859 4.68106C145.356 5.26855 145.627 6.01391 145.624 6.78335V12.2658C145.624 13.1279 145.282 13.9547 144.672 14.5643C144.062 15.1739 143.236 15.5164 142.373 15.5164H122.166V93.7844C122.166 94.6782 121.811 95.5355 121.179 96.1676C120.547 96.7997 119.69 97.1548 118.796 97.1548C117.907 97.1548 117.054 96.8038 116.423 96.1782C115.792 95.5526 115.433 94.703 115.425 93.8143Z" fill="#FE7825"/>
<path d="M115.425 93.8143V5.43518C115.423 4.64724 115.593 3.86837 115.923 3.15278C116.253 2.43719 116.735 1.80206 117.335 1.29163C117.935 0.781195 118.64 0.407713 119.399 0.19717C120.158 -0.0133727 120.954 -0.0559153 121.732 0.0725082L142.913 3.57771C143.672 3.70238 144.362 4.09357 144.859 4.68106C145.356 5.26855 145.627 6.01391 145.624 6.78335V12.2658C145.624 13.1279 145.282 13.9547 144.672 14.5643C144.062 15.1739 143.236 15.5164 142.373 15.5164H122.166V93.7844C122.166 94.6782 121.811 95.5355 121.179 96.1676C120.547 96.7997 119.69 97.1548 118.796 97.1548C117.907 97.1548 117.054 96.8038 116.423 96.1782C115.792 95.5526 115.433 94.703 115.425 93.8143Z" fill="url(#paint2_linear_467_6034)" fill-opacity="0.6"/>
<defs>
<linearGradient id="paint0_linear_467_6034" x1="175.39" y1="100.337" x2="-53.6734" y2="73.0441" gradientUnits="userSpaceOnUse">
<stop offset="0.34375" stop-color="#DD4200"/>
<stop offset="0.609375" stop-color="#FF4F00"/>
<stop offset="0.848958" stop-color="#FF8A00"/>
</linearGradient>
<linearGradient id="paint1_linear_467_6034" x1="557.074" y1="97.9807" x2="14.8416" y2="-42.4223" gradientUnits="userSpaceOnUse">
<stop offset="0.369792" stop-color="#E64500" stop-opacity="0.81"/>
<stop offset="0.572917" stop-color="#FF5C00" stop-opacity="0.79"/>
<stop offset="0.927083" stop-color="#FF9921"/>
</linearGradient>
<linearGradient id="paint2_linear_467_6034" x1="217.869" y1="67.261" x2="52.6478" y2="-18.9643" gradientUnits="userSpaceOnUse">
<stop offset="0.34375" stop-color="#DD4200"/>
<stop offset="0.609375" stop-color="#FF4F00"/>
<stop offset="0.848958" stop-color="#FF8A00"/>
</linearGradient>
</defs>
</svg>
