<svg width="36" height="36" viewBox="0 0 36 36" fill="none" xmlns="http://www.w3.org/2000/svg">
<path d="M18 15.75C20.475 15.75 22.5 17.775 22.5 20.25C22.5 22.725 20.475 24.75 18 24.75C15.525 24.75 13.5 22.725 13.5 20.25C13.5 17.775 15.525 15.75 18 15.75ZM18 15.75C15.525 15.75 13.5 17.775 13.5 20.25C13.5 22.725 15.525 24.75 18 24.75C20.475 24.75 22.5 22.725 22.5 20.25C22.5 17.775 20.475 15.75 18 15.75ZM30.375 9H25.875C25.5375 9 25.2 8.8875 24.975 8.55L22.8375 5.85C22.275 5.0625 21.2625 4.5 20.25 4.5H15.75C14.625 4.5 13.6125 5.0625 13.05 5.85L11.025 8.55C10.8 8.775 10.4625 9 10.125 9H5.625C3.7125 9 2.25 10.4625 2.25 12.375V28.125C2.25 30.0375 3.7125 31.5 5.625 31.5H30.375C32.2875 31.5 33.75 30.0375 33.75 28.125V12.375C33.75 10.4625 32.2875 9 30.375 9ZM18 27C14.2875 27 11.25 23.9625 11.25 20.25C11.25 16.5375 14.2875 13.5 18 13.5C21.7125 13.5 24.75 16.5375 24.75 20.25C24.75 23.9625 21.7125 27 18 27ZM28.6875 15.75C27.7875 15.75 27 14.9625 27 14.0625C27 13.1625 27.7875 12.375 28.6875 12.375C29.5875 12.375 30.375 13.1625 30.375 14.0625C30.375 14.9625 29.5875 15.75 28.6875 15.75ZM18 15.75C15.525 15.75 13.5 17.775 13.5 20.25C13.5 22.725 15.525 24.75 18 24.75C20.475 24.75 22.5 22.725 22.5 20.25C22.5 17.775 20.475 15.75 18 15.75ZM18 15.75C15.525 15.75 13.5 17.775 13.5 20.25C13.5 22.725 15.525 24.75 18 24.75C20.475 24.75 22.5 22.725 22.5 20.25C22.5 17.775 20.475 15.75 18 15.75ZM18 15.75C15.525 15.75 13.5 17.775 13.5 20.25C13.5 22.725 15.525 24.75 18 24.75C20.475 24.75 22.5 22.725 22.5 20.25C22.5 17.775 20.475 15.75 18 15.75ZM18 15.75C15.525 15.75 13.5 17.775 13.5 20.25C13.5 22.725 15.525 24.75 18 24.75C20.475 24.75 22.5 22.725 22.5 20.25C22.5 17.775 20.475 15.75 18 15.75ZM18 15.75C15.525 15.75 13.5 17.775 13.5 20.25C13.5 22.725 15.525 24.75 18 24.75C20.475 24.75 22.5 22.725 22.5 20.25C22.5 17.775 20.475 15.75 18 15.75ZM18 15.75C15.525 15.75 13.5 17.775 13.5 20.25C13.5 22.725 15.525 24.75 18 24.75C20.475 24.75 22.5 22.725 22.5 20.25C22.5 17.775 20.475 15.75 18 15.75Z" fill="#FE7825"/>
<path d="M18 15.75C20.475 15.75 22.5 17.775 22.5 20.25C22.5 22.725 20.475 24.75 18 24.75C15.525 24.75 13.5 22.725 13.5 20.25C13.5 17.775 15.525 15.75 18 15.75ZM18 15.75C15.525 15.75 13.5 17.775 13.5 20.25C13.5 22.725 15.525 24.75 18 24.75C20.475 24.75 22.5 22.725 22.5 20.25C22.5 17.775 20.475 15.75 18 15.75ZM30.375 9H25.875C25.5375 9 25.2 8.8875 24.975 8.55L22.8375 5.85C22.275 5.0625 21.2625 4.5 20.25 4.5H15.75C14.625 4.5 13.6125 5.0625 13.05 5.85L11.025 8.55C10.8 8.775 10.4625 9 10.125 9H5.625C3.7125 9 2.25 10.4625 2.25 12.375V28.125C2.25 30.0375 3.7125 31.5 5.625 31.5H30.375C32.2875 31.5 33.75 30.0375 33.75 28.125V12.375C33.75 10.4625 32.2875 9 30.375 9ZM18 27C14.2875 27 11.25 23.9625 11.25 20.25C11.25 16.5375 14.2875 13.5 18 13.5C21.7125 13.5 24.75 16.5375 24.75 20.25C24.75 23.9625 21.7125 27 18 27ZM28.6875 15.75C27.7875 15.75 27 14.9625 27 14.0625C27 13.1625 27.7875 12.375 28.6875 12.375C29.5875 12.375 30.375 13.1625 30.375 14.0625C30.375 14.9625 29.5875 15.75 28.6875 15.75ZM18 15.75C15.525 15.75 13.5 17.775 13.5 20.25C13.5 22.725 15.525 24.75 18 24.75C20.475 24.75 22.5 22.725 22.5 20.25C22.5 17.775 20.475 15.75 18 15.75ZM18 15.75C15.525 15.75 13.5 17.775 13.5 20.25C13.5 22.725 15.525 24.75 18 24.75C20.475 24.75 22.5 22.725 22.5 20.25C22.5 17.775 20.475 15.75 18 15.75ZM18 15.75C15.525 15.75 13.5 17.775 13.5 20.25C13.5 22.725 15.525 24.75 18 24.75C20.475 24.75 22.5 22.725 22.5 20.25C22.5 17.775 20.475 15.75 18 15.75ZM18 15.75C15.525 15.75 13.5 17.775 13.5 20.25C13.5 22.725 15.525 24.75 18 24.75C20.475 24.75 22.5 22.725 22.5 20.25C22.5 17.775 20.475 15.75 18 15.75ZM18 15.75C15.525 15.75 13.5 17.775 13.5 20.25C13.5 22.725 15.525 24.75 18 24.75C20.475 24.75 22.5 22.725 22.5 20.25C22.5 17.775 20.475 15.75 18 15.75ZM18 15.75C15.525 15.75 13.5 17.775 13.5 20.25C13.5 22.725 15.525 24.75 18 24.75C20.475 24.75 22.5 22.725 22.5 20.25C22.5 17.775 20.475 15.75 18 15.75Z" fill="url(#paint0_linear_4199_5788)"/>
<defs>
<linearGradient id="paint0_linear_4199_5788" x1="109.108" y1="23.1923" x2="-9.21961" y2="-1.95823" gradientUnits="userSpaceOnUse">
<stop offset="0.369792" stop-color="#E64500" stop-opacity="0.81"/>
<stop offset="0.572917" stop-color="#FF5C00" stop-opacity="0.79"/>
<stop offset="0.927083" stop-color="#FF9921"/>
</linearGradient>
</defs>
</svg>
