<svg width="190" height="192" viewBox="0 0 190 192" fill="none" xmlns="http://www.w3.org/2000/svg">
<ellipse cx="97.8932" cy="100.978" rx="91.2116" ry="91.0225" fill="#F7DBC4"/>
<path d="M70.0019 92.6747L57.6417 102.485L68.8838 166.689C85.3907 169.694 101.406 167.818 107.35 166.505L146.511 158.804C157.262 151.828 153.486 142.094 150.255 138.1C157.274 131.51 154.172 122.715 151.743 119.141C159.436 110.683 154.111 102.47 150.487 99.4202C152.827 97.2237 152.432 91.6582 151.942 89.1501C150.244 80.455 141.879 78.9744 137.909 79.321L70.0019 92.6747Z" fill="#FE7825"/>
<path d="M70.0019 92.6747L57.6417 102.485L68.8838 166.689C85.3907 169.694 101.406 167.818 107.35 166.505L146.511 158.804C157.262 151.828 153.486 142.094 150.255 138.1C157.274 131.51 154.172 122.715 151.743 119.141C159.436 110.683 154.111 102.47 150.487 99.4202C152.827 97.2237 152.432 91.6582 151.942 89.1501C150.244 80.455 141.879 78.9744 137.909 79.321L70.0019 92.6747Z" fill="url(#paint0_linear_467_5965)"/>
<path d="M87.0116 64.5867C84.357 79.3468 74.0645 89.8499 69.2501 93.2565L113.411 84.5725C114.759 80.4006 115.808 74.5511 116.132 69.7125C116.633 62.2345 113.79 51.0733 104.315 46.8593C94.8393 42.6454 86.572 49.046 87.0535 53.7263C87.4387 57.4705 87.1861 62.5267 87.0116 64.5867Z" fill="#FE7825"/>
<path d="M53.2828 95.9625L20.8965 102.331C17.6451 102.97 15.5242 106.125 16.1594 109.378L29.2086 176.19C29.8438 179.442 32.9946 181.56 36.246 180.921L54.8953 177.254C65.7334 175.122 72.803 164.606 70.6857 153.766L60.3201 100.693C59.6849 97.4412 56.5342 95.3231 53.2828 95.9625Z" fill="#FE7825"/>
<path d="M53.2828 95.9625L20.8965 102.331C17.6451 102.97 15.5242 106.125 16.1594 109.378L29.2086 176.19C29.8438 179.442 32.9946 181.56 36.246 180.921L54.8953 177.254C65.7334 175.122 72.803 164.606 70.6857 153.766L60.3201 100.693C59.6849 97.4412 56.5342 95.3231 53.2828 95.9625Z" fill="url(#paint1_linear_467_5965)"/>
<path d="M42.7111 161.154C42.2876 158.986 43.7015 156.882 45.8692 156.456L46.3517 156.361C48.5193 155.935 50.6198 157.347 51.0433 159.515L54.5221 177.327L46.1899 178.966L42.7111 161.154Z" fill="#FFB066"/>
<rect width="23.115" height="8.34766" rx="4" transform="matrix(0.981209 -0.19295 0.191689 0.981456 49.5459 56.2114)" fill="#FE7825"/>
<rect width="23.115" height="8.34766" rx="4" transform="matrix(0.981209 -0.19295 0.191689 0.981456 123.031 41.7607)" fill="#FE7825"/>
<rect width="23.1816" height="8.32365" rx="4" transform="matrix(0.32314 -0.946394 0.945641 0.325089 100.539 27.8931)" fill="#FE7825"/>
<rect width="23.1578" height="8.33226" rx="4" transform="matrix(-0.655921 -0.754776 -0.75262 0.658516 86.2905 30.6953)" fill="#FE7825"/>
<defs>
<linearGradient id="paint0_linear_467_5965" x1="-286.5" y1="198" x2="193.042" y2="131.999" gradientUnits="userSpaceOnUse">
<stop offset="0.20001" stop-color="#DD4200"/>
<stop offset="0.458859" stop-color="#FF4F00"/>
<stop offset="0.786776" stop-color="#FFA24C"/>
</linearGradient>
<linearGradient id="paint1_linear_467_5965" x1="175.443" y1="128.438" x2="0.408524" y2="144.385" gradientUnits="userSpaceOnUse">
<stop offset="0.369792" stop-color="#E64500" stop-opacity="0.81"/>
<stop offset="0.572917" stop-color="#FF5C00" stop-opacity="0.79"/>
<stop offset="0.927083" stop-color="#FF9921"/>
</linearGradient>
</defs>
</svg>
