<svg width="200" height="170" viewBox="0 0 200 170" fill="none" xmlns="http://www.w3.org/2000/svg">
<path d="M151.356 16.2274L147 21.5286L149.649 27.8584L143.261 25.3532L138.059 29.8283L138.468 22.9788L132.604 19.4147L139.245 17.6867L140.822 11.0089L144.518 16.7904L151.356 16.2274Z" fill="#DADADA"/>
<path d="M95.4179 6.61835L92.1363 7.33386L91.2342 10.5691L89.5397 7.66927L86.184 7.81112L88.4183 5.30338L87.2464 2.15576L90.3218 3.50577L92.9533 1.41859L92.6197 4.76067L95.4179 6.61835Z" fill="#DADADA"/>
<path d="M13.914 36.8822L11.2026 40.1815L12.851 44.1209L8.87541 42.5618L5.63818 45.3469L5.89246 41.084L2.24331 38.8659L6.37609 37.7904L7.35803 33.6344L9.65795 37.2326L13.914 36.8822Z" fill="#DADADA"/>
<path d="M145 42.4809H82.5517C81.8506 42.4809 81.154 42.4666 80.4533 42.4468C75.6224 42.3103 55.2802 41.9685 45 45.4809C35.5064 48.7245 25.9678 58.2024 22.691 61.6811C21.8842 62.5375 21.1453 63.4417 20.5243 64.4411C18.1006 68.3417 12 79.9505 12 97.9809L12 101.474C12.0001 130.193 35.2812 153.481 64.0001 153.481H146.254C150.733 153.481 155.192 154.059 159.522 155.202L189 162.981L186.5 139.981C186.5 139.981 197 123.981 197 102.981V94.4934C197 65.7746 173.719 42.4809 145 42.4809Z" fill="#DADADA"/>
<path d="M80.4999 43.3691H144C172.719 43.3691 196 66.6629 196 95.3817C196 98.6581 196 101.56 196 103.869C196 119.869 185.5 140.869 185.5 140.869L188 163.869L158.522 156.09C154.192 154.948 149.733 154.369 145.254 154.369H63C34.2811 154.369 10.9999 131.082 10.9999 102.363C10.9999 101.169 10.9999 100.003 10.9999 98.8691C10.9998 76.3691 20.4999 63.8691 20.4999 63.8691" stroke="#C4C4C4" stroke-width="8" stroke-linecap="round"/>
<rect x="51.9999" y="69.3691" width="101" height="7" rx="3.5" fill="#C4C4C4"/>
<rect x="51.9999" y="88.3691" width="101" height="7" rx="3.5" fill="#C4C4C4"/>
<rect x="51.9999" y="107.369" width="101" height="7" rx="3.5" fill="#C4C4C4"/>
<rect x="73.9999" y="126.369" width="79" height="7" rx="3.5" fill="#C4C4C4"/>
<rect x="51.9999" y="126.369" width="11" height="7" rx="3.5" fill="#C4C4C4"/>
<path d="M40.9999 39.3691H39.702C37.4929 39.3691 35.6494 37.5622 36.0012 35.3812C36.787 30.5107 39.0014 27.8399 41.2152 26.5079C43.1081 25.3689 44.9999 23.5783 44.9999 21.3691C44.9999 19.16 43.1855 17.3137 41.0228 17.764C29.9369 20.0719 26.3637 31.9288 25.9999 38.1691V53.3691C25.9999 55.5783 27.7907 57.3691 29.9999 57.3691H40.9999C43.209 57.3691 44.9999 55.5783 44.9999 53.3691V43.3691C44.9999 41.16 43.209 39.3691 40.9999 39.3691Z" fill="#C4C4C4"/>
<path d="M66.9999 39.3691H65.702C63.4929 39.3691 61.6494 37.5622 62.0012 35.3812C62.787 30.5107 65.0014 27.8399 67.2152 26.5079C69.1081 25.3689 70.9999 23.5783 70.9999 21.3691C70.9999 19.16 69.1855 17.3137 67.0228 17.764C55.9369 20.0719 52.3637 31.9288 51.9999 38.1691V53.3691C51.9999 55.5783 53.7907 57.3691 55.9999 57.3691H66.9999C69.209 57.3691 70.9999 55.5783 70.9999 53.3691V43.3691C70.9999 41.16 69.209 39.3691 66.9999 39.3691Z" fill="#C4C4C4"/>
</svg>
