<svg width="266" height="246" viewBox="0 0 266 246" fill="none" xmlns="http://www.w3.org/2000/svg">
<circle cx="135.5" cy="130.5" r="115.5" fill="#F7DBC4"/>
<path d="M200.761 68.8612L214.048 167.368C214.387 169.937 213.778 172.51 212.354 174.526C210.93 176.542 208.807 177.835 206.45 178.124L34.2625 199.02C31.9014 199.298 29.502 198.548 27.5868 196.935C25.6717 195.322 24.396 192.975 24.0379 190.407L10.7512 91.8994C10.5873 90.585 10.6716 89.2577 10.9992 87.9986C11.3267 86.7395 11.8906 85.5753 12.6561 84.5773C14.0674 82.7274 16.0785 81.5328 18.3026 81.223L190.497 60.3604C192.859 60.0733 195.263 60.8193 197.18 62.4343C199.097 64.0493 200.371 66.4012 200.721 68.9735L200.761 68.8612Z" fill="#FF9E2D"/>
<path d="M196.921 61.9704L135.681 131.172C130.017 137.592 122.434 141.65 114.184 142.677C105.934 143.704 97.5082 141.639 90.2964 136.821L12.6358 84.4778C14.0471 82.6279 16.0582 81.4332 18.2823 81.1235L190.476 60.2608C192.718 59.9526 195.014 60.5618 196.921 61.9704Z" fill="#FE7825"/>
<path d="M196.921 61.9704L135.681 131.172C130.017 137.592 122.434 141.65 114.184 142.677C105.934 143.704 97.5082 141.639 90.2964 136.821L12.6358 84.4778C14.0471 82.6279 16.0582 81.4332 18.2823 81.1235L190.476 60.2608C192.718 59.9526 195.014 60.5618 196.921 61.9704Z" fill="url(#paint0_linear_514_10506)" fill-opacity="0.6"/>
<circle cx="208" cy="180" r="50" transform="rotate(9.05518 208 180)" fill="#FE7825"/>
<circle cx="208" cy="180" r="50" transform="rotate(9.05518 208 180)" fill="url(#paint1_linear_514_10506)"/>
<path d="M189.302 176.599L204.577 192.619L233.904 169.952" stroke="#FFC085" stroke-width="8"/>
<circle cx="76.5" cy="8.5" r="2.5" fill="#FFA24C"/>
<circle cx="129" cy="48" r="4" fill="#FFA24C"/>
<circle cx="33.5" cy="46.5" r="2.5" fill="#FFA24C"/>
<circle cx="135.5" cy="3.5" r="2.5" fill="#FFA24C"/>
<circle cx="189.5" cy="17.5" r="2.5" fill="#FFA24C"/>
<rect x="67.6001" y="33.0659" width="12" height="4" rx="2" transform="rotate(23.5795 67.6001 33.0659)" fill="#FFA24C"/>
<rect x="76.5322" y="32.6001" width="12" height="4" rx="2" transform="rotate(113.58 76.5322 32.6001)" fill="#FFA24C"/>
<rect x="216.981" y="52.4009" width="9.5252" height="3.17507" rx="1.58753" transform="rotate(-19.5957 216.981 52.4009)" fill="#FFA24C"/>
<rect x="221.898" y="47.2803" width="9.5252" height="3.17507" rx="1.58753" transform="rotate(70.4043 221.898 47.2803)" fill="#FFA24C"/>
<defs>
<linearGradient id="paint0_linear_514_10506" x1="378" y1="103" x2="-16.3748" y2="-33.3063" gradientUnits="userSpaceOnUse">
<stop offset="0.34375" stop-color="#DD4200"/>
<stop offset="0.609375" stop-color="#FF4F00"/>
<stop offset="0.848958" stop-color="#FF8A00"/>
</linearGradient>
<linearGradient id="paint1_linear_514_10506" x1="497.231" y1="199.231" x2="117.231" y2="130" gradientUnits="userSpaceOnUse">
<stop offset="0.369792" stop-color="#E64500" stop-opacity="0.81"/>
<stop offset="0.572917" stop-color="#FF5C00" stop-opacity="0.79"/>
<stop offset="0.927083" stop-color="#FF9921"/>
</linearGradient>
</defs>
</svg>
