<svg width="16" height="19" viewBox="0 0 16 19" fill="none" xmlns="http://www.w3.org/2000/svg">
<path d="M13.3953 11.6591C13.3953 11.6591 14.685 11.6591 15.5455 10.7955C14.8574 17.0136 11.2447 19 7.80485 19C-1.22643 19 0.0637062 9.06818 0.0637062 9.06818C0.0637062 9.06818 0.923901 10.7955 2.64444 11.2273C2.21451 9.06818 2.21451 7.77273 3.07447 5.61364C4.75484 1.39481 7.37482 0 9.09495 0C8.52157 1.15152 7.71884 3.97273 9.09495 6.04545C10.4711 8.11818 12.2485 6.33333 12.9652 5.18182C15.0294 7.6 14.112 10.5076 13.3953 11.6591Z" fill="#FE7825"/>
<path d="M13.3953 11.6591C13.3953 11.6591 14.685 11.6591 15.5455 10.7955C14.8574 17.0136 11.2447 19 7.80485 19C-1.22643 19 0.0637062 9.06818 0.0637062 9.06818C0.0637062 9.06818 0.923901 10.7955 2.64444 11.2273C2.21451 9.06818 2.21451 7.77273 3.07447 5.61364C4.75484 1.39481 7.37482 0 9.09495 0C8.52157 1.15152 7.71884 3.97273 9.09495 6.04545C10.4711 8.11818 12.2485 6.33333 12.9652 5.18182C15.0294 7.6 14.112 10.5076 13.3953 11.6591Z" fill="url(#paint0_linear_4077_4891)"/>
<path d="M4.43837 14.4762C3.75291 17.7333 5.72351 19 7.86563 19C11.9783 19 11.7213 14.0238 10.0077 12.6667C7.74008 15.1136 6.88001 11.6591 8.29404 9.5C7.29442 9.80159 5.12382 11.219 4.43837 14.4762Z" fill="#FFCD90"/>
<defs>
<linearGradient id="paint0_linear_4077_4891" x1="52.735" y1="13.1538" x2="-6.97185" y2="4.25386" gradientUnits="userSpaceOnUse">
<stop offset="0.369792" stop-color="#E64500" stop-opacity="0.81"/>
<stop offset="0.572917" stop-color="#FF5C00" stop-opacity="0.79"/>
<stop offset="0.927083" stop-color="#FF9921"/>
</linearGradient>
</defs>
</svg>
