<svg width="24" height="24" viewBox="0 0 24 24" fill="none" xmlns="http://www.w3.org/2000/svg">
<path fill-rule="evenodd" clip-rule="evenodd" d="M13.9199 6.40759H20.2209C20.6349 6.40759 20.9709 6.74359 20.9709 7.15759C20.9709 7.57159 20.6349 7.90759 20.2209 7.90759H13.9199C13.5059 7.90759 13.1699 7.57159 13.1699 7.15759C13.1699 6.74359 13.5059 6.40759 13.9199 6.40759Z" fill="#313131"/>
<path fill-rule="evenodd" clip-rule="evenodd" d="M4.80913 16.1H11.1091C11.5231 16.1 11.8591 16.436 11.8591 16.85C11.8591 17.264 11.5231 17.6 11.1091 17.6H4.80913C4.39513 17.6 4.05913 17.264 4.05913 16.85C4.05913 16.436 4.39513 16.1 4.80913 16.1Z" fill="#313131"/>
<mask id="mask0_4213_5205" style="mask-type:luminance" maskUnits="userSpaceOnUse" x="14" y="13" width="7" height="7">
<path fill-rule="evenodd" clip-rule="evenodd" d="M21 20H14.7742V13.8084H21V20Z" fill="white"/>
</mask>
<g mask="url(#mask0_4213_5205)">
<path fill-rule="evenodd" clip-rule="evenodd" d="M17.8872 18.5004C18.7762 18.5004 19.5002 17.7844 19.5002 16.9034C19.5002 16.0234 18.7762 15.3084 17.8872 15.3084C16.9972 15.3084 16.2742 16.0234 16.2742 16.9034C16.2742 17.7844 16.9972 18.5004 17.8872 18.5004ZM17.8872 13.8084C19.6032 13.8084 21.0002 15.1964 21.0002 16.9034C21.0002 18.6104 19.6032 20.0004 17.8872 20.0004C16.1702 20.0004 14.7742 18.6104 14.7742 16.9034C14.7742 15.1964 16.1702 13.8084 17.8872 13.8084Z" fill="#313131"/>
</g>
<path fill-rule="evenodd" clip-rule="evenodd" d="M6.61232 8.79236C7.50232 8.79236 8.22632 8.07636 8.22632 7.19636C8.22632 6.31536 7.50232 5.60036 6.61232 5.60036C5.72332 5.60036 5.00032 6.31536 5.00032 7.19636C5.00032 8.07636 5.72332 8.79236 6.61232 8.79236ZM6.61232 4.10036C8.32932 4.10036 9.72632 5.48936 9.72632 7.19636C9.72632 8.90336 8.32932 10.2924 6.61232 10.2924C4.89632 10.2924 3.50032 8.90336 3.50032 7.19636C3.50032 5.48936 4.89632 4.10036 6.61232 4.10036Z" fill="#313131"/>
</svg>
